<svg version="1.1" id="Layer_1"
	xmlns="http://www.w3.org/2000/svg"
	xmlns:xlink="http://www.w3.org/1999/xlink" x="0px" y="0px" width="100%" viewBox="0 0 500 500" enable-background="new 0 0 500 500" xml:space="preserve">
	<path fill="None" opacity="1.000000" stroke="none" d="
M281.000000,501.000000 
	C187.333359,501.000000 94.166710,501.000000 1.000050,501.000000 
	C1.000033,334.333405 1.000033,167.666794 1.000017,1.000139 
	C167.666565,1.000093 334.333130,1.000093 500.999756,1.000046 
	C500.999847,167.666519 500.999847,334.333038 500.999939,500.999786 
	C427.833344,501.000000 354.666656,501.000000 281.000000,501.000000 
M253.028336,457.525818 
	C267.428986,457.368622 281.892914,457.990173 296.211823,456.826813 
	C309.504578,455.746765 322.925781,453.814026 335.778656,450.355103 
	C352.756134,445.786194 369.315247,439.375641 383.752136,428.953308 
	C395.543915,420.440552 407.454285,411.884888 418.070312,402.012878 
	C427.409729,393.328033 435.108246,382.859802 443.368317,373.041901 
	C446.829803,368.927582 446.058472,363.627380 441.753601,360.298370 
	C437.620789,357.102356 433.371094,354.052979 429.107086,351.031830 
	C407.943298,336.036835 386.763947,321.063812 365.572662,306.107605 
	C362.737366,304.106537 359.617310,302.934540 356.777954,305.849213 
	C353.683350,309.025909 350.922241,312.527435 348.015503,315.887207 
	C339.332794,325.923248 329.281555,334.438538 317.604065,340.627747 
	C298.864899,350.559845 278.615326,352.402283 258.060730,348.784668 
	C242.820084,346.102325 229.533356,338.890961 218.356461,327.911407 
	C204.485092,314.284943 196.534821,297.475769 192.209824,278.912933 
	C190.422485,271.241699 190.321350,263.177612 189.408936,254.888885 
	C200.100021,254.888885 209.399597,254.888885 220.135880,254.888885 
	C189.652069,202.114136 159.645294,150.165253 128.818283,96.796356 
	C98.140488,149.856476 67.939445,202.091995 37.201195,255.256653 
	C48.616108,255.256653 58.700420,255.256653 68.499237,255.256653 
	C69.026321,261.486908 69.716011,267.222626 69.958595,272.977203 
	C70.588928,287.930481 73.655388,302.397095 77.879463,316.705505 
	C84.983185,340.768311 95.602638,363.170837 111.936752,382.180847 
	C123.170883,395.255402 135.440979,407.757935 148.794785,418.613434 
	C165.924698,432.538574 186.018936,441.749603 207.094604,448.576965 
	C221.780197,453.334290 236.784866,456.277069 253.028336,457.525818 
M266.736084,159.004196 
	C273.733185,159.065033 280.824310,158.409393 287.710724,159.313492 
	C314.355469,162.811615 334.155060,177.969116 350.847321,197.867188 
	C356.063751,204.085449 358.297699,204.676498 364.832916,199.644485 
	C380.757141,187.383163 396.674042,175.112305 412.600769,162.854218 
	C421.024445,156.370880 429.471222,149.917542 437.891388,143.429718 
	C444.479065,138.353790 445.274719,135.348007 439.879272,129.038986 
	C431.055115,118.720711 422.008942,108.527596 412.335205,99.015129 
	C396.098450,83.049026 376.543793,72.119080 355.397675,63.998199 
	C337.435822,57.100189 318.789093,53.274212 299.603973,51.829800 
	C279.479919,50.314697 259.379883,50.099056 239.434036,53.436405 
	C215.822693,57.387062 193.192825,64.556122 172.310440,76.442520 
	C163.517548,81.447495 155.193436,87.289703 146.774612,92.928078 
	C144.807373,94.245605 142.605026,95.859390 144.600739,99.045448 
	C147.598816,103.831749 150.315201,108.794868 153.138504,113.690216 
	C166.168823,136.283508 179.167099,158.895340 192.240753,181.463486 
	C195.681870,187.403671 199.351166,193.211685 203.436340,199.937637 
	C218.541809,176.233994 238.792938,162.322433 266.736084,159.004196 
z"/>
	<path fill="#1B98D5" opacity="1.000000" stroke="none" d="
M252.615845,457.307495 
	C236.784866,456.277069 221.780197,453.334290 207.094604,448.576965 
	C186.018936,441.749603 165.924698,432.538574 148.794785,418.613434 
	C135.440979,407.757935 123.170883,395.255402 111.936752,382.180847 
	C95.602638,363.170837 84.983185,340.768311 77.879463,316.705505 
	C73.655388,302.397095 70.588928,287.930481 69.958595,272.977203 
	C69.716011,267.222626 69.026321,261.486908 68.499237,255.256653 
	C58.700420,255.256653 48.616108,255.256653 37.201195,255.256653 
	C67.939445,202.091995 98.140488,149.856476 128.818283,96.796356 
	C159.645294,150.165253 189.652069,202.114136 220.135880,254.888885 
	C209.399597,254.888885 200.100021,254.888885 189.408936,254.888885 
	C190.321350,263.177612 190.422485,271.241699 192.209824,278.912933 
	C196.534821,297.475769 204.485092,314.284943 218.356461,327.911407 
	C229.533356,338.890961 242.820084,346.102325 258.060730,348.784668 
	C278.615326,352.402283 298.864899,350.559845 317.604065,340.627747 
	C329.281555,334.438538 339.332794,325.923248 348.015503,315.887207 
	C350.922241,312.527435 353.683350,309.025909 356.777954,305.849213 
	C359.617310,302.934540 362.737366,304.106537 365.572662,306.107605 
	C386.763947,321.063812 407.943298,336.036835 429.107086,351.031830 
	C433.371094,354.052979 437.620789,357.102356 441.753601,360.298370 
	C446.058472,363.627380 446.829803,368.927582 443.368317,373.041901 
	C435.108246,382.859802 427.409729,393.328033 418.070312,402.012878 
	C407.454285,411.884888 395.543915,420.440552 383.752136,428.953308 
	C369.315247,439.375641 352.756134,445.786194 335.778656,450.355103 
	C322.925781,453.814026 309.504578,455.746765 296.211823,456.826813 
	C281.892914,457.990173 267.428986,457.368622 252.615845,457.307495 
z"/>
	<path fill="#242D3A" opacity="1.000000" stroke="none" d="
M266.267303,159.008881 
	C238.792938,162.322433 218.541809,176.233994 203.436340,199.937637 
	C199.351166,193.211685 195.681870,187.403671 192.240753,181.463486 
	C179.167099,158.895340 166.168823,136.283508 153.138504,113.690216 
	C150.315201,108.794868 147.598816,103.831749 144.600739,99.045448 
	C142.605026,95.859390 144.807373,94.245605 146.774612,92.928078 
	C155.193436,87.289703 163.517548,81.447495 172.310440,76.442520 
	C193.192825,64.556122 215.822693,57.387062 239.434036,53.436405 
	C259.379883,50.099056 279.479919,50.314697 299.603973,51.829800 
	C318.789093,53.274212 337.435822,57.100189 355.397675,63.998199 
	C376.543793,72.119080 396.098450,83.049026 412.335205,99.015129 
	C422.008942,108.527596 431.055115,118.720711 439.879272,129.038986 
	C445.274719,135.348007 444.479065,138.353790 437.891388,143.429718 
	C429.471222,149.917542 421.024445,156.370880 412.600769,162.854218 
	C396.674042,175.112305 380.757141,187.383163 364.832916,199.644485 
	C358.297699,204.676498 356.063751,204.085449 350.847321,197.867188 
	C334.155060,177.969116 314.355469,162.811615 287.710724,159.313492 
	C280.824310,158.409393 273.733185,159.065033 266.267303,159.008881 
z"/>
</svg>